/* XPM */
static char *wall_601702917137[] = {
/* columns rows colors chars-per-pixel */
"60 60 204 2 ",
"   c #54321F",
".  c #563421",
"X  c #5B3623",
"o  c #5E3926",
"O  c #5E3E29",
"+  c #623C26",
"@  c #633D29",
"#  c #683F2A",
"$  c #5F4127",
"%  c #5E4829",
"&  c #5C542A",
"*  c #64422A",
"=  c #6C432B",
"-  c #634B2C",
";  c #67452B",
":  c #71462E",
">  c #73492E",
",  c #794B2F",
"<  c #63542D",
"1  c #664635",
"2  c #6F4833",
"3  c #734731",
"4  c #754A31",
"5  c #7B4D33",
"6  c #794E39",
"7  c #665E30",
"8  c #7E5134",
"9  c #7D543B",
"0  c #775139",
"q  c #537D34",
"w  c #5B7832",
"e  c #4F7A32",
"r  c #6C6135",
"t  c #676B33",
"y  c #6A6A35",
"u  c #706737",
"i  c #6A7236",
"p  c #6C7438",
"a  c #6E7B3A",
"s  c #667635",
"d  c #6A5248",
"f  c #735649",
"g  c #7C5C4B",
"h  c #785745",
"j  c #6F5D59",
"k  c #765E54",
"l  c #7B645B",
"z  c #786864",
"x  c #756E74",
"c  c #79737A",
"v  c #814F34",
"b  c #835335",
"n  c #895637",
"m  c #8B5937",
"M  c #835539",
"N  c #8A5739",
"B  c #85583A",
"V  c #8C5A3A",
"C  c #855837",
"Z  c #925D3D",
"A  c #985D3D",
"S  c #8E603F",
"D  c #95613E",
"F  c #99633F",
"G  c #855C43",
"H  c #8C5E43",
"J  c #825F4C",
"K  c #965F40",
"L  c #8F6043",
"P  c #83614C",
"I  c #956341",
"U  c #996441",
"Y  c #9D6A45",
"T  c #96684B",
"R  c #9D6D49",
"E  c #956849",
"W  c #9D714C",
"Q  c #846659",
"!  c #996E56",
"~  c #9B735A",
"^  c #9A7358",
"/  c #A26C46",
"(  c #A46E49",
")  c #A96F4A",
"_  c #A77147",
"`  c #A5714A",
"'  c #AA754D",
"]  c #AE794E",
"[  c #A97347",
"{  c #B1774F",
"}  c #B17B4F",
"|  c #A37654",
" . c #AD7750",
".. c #AE7A51",
"X. c #A67A5A",
"o. c #A87B5C",
"O. c #B27D52",
"+. c #B87F52",
"@. c #B07E59",
"#. c #876E62",
"$. c #8C756B",
"%. c #8D7165",
"&. c #9D7C65",
"*. c #847574",
"=. c #897D7C",
"-. c #877A79",
";. c #927E75",
":. c #A67E63",
">. c #548235",
",. c #5A8637",
"<. c #5B8639",
"1. c #5C8B3A",
"2. c #568439",
"3. c #5D933A",
"4. c #5E9D3D",
"5. c #6A8B3D",
"6. c #6A873B",
"7. c #718D3E",
"8. c #62953E",
"9. c #629B3E",
"0. c #699B3E",
"q. c #69943D",
"w. c #5EA03E",
"e. c #63A23F",
"r. c #738D41",
"t. c #659240",
"y. c #6A9743",
"u. c #649C41",
"i. c #6A9C41",
"p. c #759242",
"a. c #759E45",
"s. c #65A441",
"d. c #6BA443",
"f. c #67A940",
"g. c #6CAC44",
"h. c #6EAA48",
"j. c #71A947",
"k. c #74AC48",
"l. c #79AE49",
"z. c #79A546",
"x. c #6FB148",
"c. c #6EB046",
"v. c #71B447",
"b. c #73B34A",
"n. c #7AB54D",
"m. c #7BBC4E",
"M. c #7EB751",
"N. c #7EBB51",
"B. c #7DC14E",
"V. c #85934C",
"C. c #AF815D",
"Z. c #B68154",
"A. c #BA8355",
"S. c #B4835B",
"D. c #BA8659",
"F. c #BE895B",
"G. c #BA8857",
"H. c #81AF4C",
"J. c #82B24E",
"K. c #86B552",
"L. c #83BB52",
"P. c #89BB56",
"I. c #8BB956",
"U. c #94B55B",
"Y. c #97BA5C",
"T. c #91817D",
"R. c #A2826B",
"E. c #AA8265",
"W. c #BE8B60",
"Q. c #B58D72",
"!. c #B69175",
"~. c #C0875A",
"^. c #C18C5D",
"/. c #C5915F",
"(. c #C8935F",
"). c #C38F60",
"_. c #C69161",
"`. c #CA9564",
"'. c #CE9966",
"]. c #CF9A69",
"[. c #D19C66",
"{. c #D39D69",
"}. c #D4A067",
"|. c #D5A16B",
" X c #D8A36D",
".X c #83C151",
"XX c #8BC656",
"oX c #94C35D",
"OX c #99C45E",
"+X c #98C85E",
"@X c #9BC661",
"#X c #9DC862",
"$X c #837D84",
"%X c #897F80",
"&X c #87838A",
"*X c #8A8389",
"=X c #948989",
"-X c #988A87",
";X c #929197",
":X c #9D9698",
">X c #948F96",
",X c #A7958E",
"<X c #A49EA2",
"1X c #A9A3A9",
/* pixels */
"e >.<.<.<.,.,.,.<.2.,.<.<.<.<.,.,.<.<.<.<.q e q >.q q q 2.2.<.<.,.1.<.,.,.,.<.,.<.1.,.,.,.q <.2.<.1.<.,.>.e >.q >.q >.2.",
">.<.1.,.>.,.1.t.y.t.1.<.>.,.1.<.3.,.>.,.1.<.>.>.>.,.<.1.t.8.y.y.1.<.>.>.1.1.<.<.2.>.1.1.y.y.5.,.>.>.<.1.,.>.>.>.,.,.1.t.",
"u.0.9.4.3.3.9.s.h.d.4.3.3.u.h.i.9.3.3.3.u.9.u.u.u.u.u.9.u.0.j.d.3.9.3.3.9.u.d.d.4.3.4.u.d.j.9.8.3.3.t.9.9.u.u.u.9.9.9.9.",
"b.h.s.s.e.4.9.d.h.s.4.s.g.x.N.b.9.4.w.w.s.g.b.n.N.n.g.f.w.9.h.h.s.4.9.0.d.s.M.N.g.g.4.4.g.h.e.4.4.w.s.s.h.v.N.N.b.g.e.w.",
"L.n.k.k.s.s.4.5.6.0.e.f.c.v.n.h.u.s.s.d.l.n.M.M.n.n.g.f.w.e.5.5.d.d.d.e.j.k.n.m.h.g.e.e.q.5.4.u.s.s.k.k.n.M.M.n.b.g.s.e.",
"@XOXoXL.b.d.4.&   s g.g.f.e.e.w.4.s.b.N.oXoX@XP.e.f.f.f.c.d.$   K.K.J.J.K.K.e.e.e.e.c.h.& . w 4.h.v.P.oX@X@XM.e.f.f.h.c.",
"OXOXOXI.n.i.1.& X a v.d.0.0.g.9.3.y.n.N.@XoX#XXXe.g.0.0.b.d.$   J.K.J.J.K.I.j.e.e.0.k.v.& X w 5.k.n.P.@XoX@XN.f.d.8.d.x.",
"XX+X#X#X#Xy . . X 6.m.a o i .X5.. r #X#XOXoXXXXX.Xz.o * m.k.$ X b.b.g.e.OX@X.XJ.- + z.B.< X . . V.#X#X#XoXXXXX.Xp X a N.",
"K.oX+XY.U.r X X o a l.p O i .Xr.o r Y.Y.#XXXK.L..Xz.o - l.z.$ X b.b.e.0.U.U.L.L.- o a.l.< o X X V.Y.oX#XoXL.L.L.p o p n.",
"* r.m.i * 3 5 = o @ * * @ t b.r.5 = * r m.p.* r v.0.+ + * * o X m.m.< + $ o 0.h.- @ * * @ o 3 5 = * r.m.a * p b.t + * * ",
"@ 7.B.y X : b = o o o + + t v.p.6 > . < B.p.@ 7 v.e.+ + @ o o @ B.m.- o X   0.b.- @ @ @ o @ 5 8 * X 7.B.a O s v.s @ o + ",
"@ # * j x g b U ' Y V V V b ; = b J x z * * @ * ; > Z m V K ` ' ; ; S.~._ Y , ; N H m B (  .N b z x d * @ @ # 1 M m m m ",
"@ * @ j c J b U ../ D Z V C # = b J c z o @ @ @ # = K I K I  .O.@ # D.`.' ( 3 = V Z Z Z ' O.N M #.c d @ @ @ # @ M Z K Z ",
"N N M 0 1 6 n / ] S = : : = * : M 5 1 2 n n N v # = : = = 4 ' O.n m ' ..` ( 4 # : = 3 = ) } Z b 2 1 8 b N N 5 # = = = = ",
"Z Z Z 6 ; 5 n ( @.V = = : = = 4 n 5 1 3 Z I K n ; = = = # 3  .+.Z Z '  .' [ 4 = = ; ; # ) @.Z n = * M K Z Z v ; = = = = ",
"Z O.~.A.@.D n Z / Z C R D.D.D.` n D ..O.D. .K Y S.A.S...n N / / -X-XT Y I D ..S.A.A.V n Y ( m N R ..D.D.' K ( A.A.@.R N ",
"Z D.{.[.'.( m m U A U O.|.{.{.D.B / '.[.}.F.I ) {.|.{.'.D A D A 1X<XE m m N _.|.|.|.Y D K K m m A.[.[.[...K +.|.{.|.A.D ",
"5 ` ~.D.D.Y N / ' / Z /  .O.~...B / F.~.^.` 5 I W.F...' U U ) [ Q.Q.D.A.A.@.^.F.]  .Y D ' [ Z m  .F.^.^.E 5 R ^.O.{ ( D ",
"# E +.+.O.U m [ Z.[ K U U / +.[ n Y O.} +.Y = 5 A.{ D U K Y A.A.+.Z.'.'.'.`.G.+.D D A D O.A.U m ` O.} Z.Z ; V Z./ U I K ",
"D ' O.' / I B ` A.' U Z 5 V ` U m Z / ` +.' D Y ` Y v M K / +.A.) ` F.F.] ` ) / n b I U O.D.U m Y / ] O.` U Y ) V b V Y ",
"Z.+.Z./ Z V B ' D.' D N ; 5 A Z m V Z Y +.Z.Z.] D m = > U Y +.A.Z U O.O.Z m K Z : = Z Z A.A.U B V V  .+.Z.Z._ U 5 = b D ",
"[ ` ) Y Z ` O.Y D B n b b N U / ..' Z U ) _ ) / D Z b b b M I Z U K / / b 4 Z K b b b b V I [ ..Y Z Y ) ` _ / A B n 8 b ",
"K K K Z Z A.`.S = = ; v U D U ' `.A.Z Z Z K I I U U D Z # = = = U K K Z ; @ m U U D > = = = ..'.( K K Z U A U D U I b = ",
"@.O.O.I 8 ` F.I 5 L R ( _ U n E F.' 8 H O.O.O.) N Z _ / R E b 5 O.O... .5 : b m / ( Y R M 8 ..F.I v Y O.} } R B D ) R R ",
"|.|.|.I @ I ' Y U F. X'.A.Y = M ' I # 9 |.{.|.F.; v D.~. X[.Y Z |.|.{.].I B : > O.D.{. X) D ) ' 6 # ' |.|. X| = E G._. X",
"'.`._.I : B I / ' D.).F.A.| f g I B = n `.`.'.S.f J A.D./.^.] ' `.`.`._.U Z h g +.D.).^.O.' E I 5 = ' `.`.'.X.h W A.~._.",
"+.+.} Y V : O | |.O.D ) O.E.&Xz O 4 Z U @.+.+.:.*XT.A.O.I Y {.|.O.} } { Z m *.*XS.+.Y A _.|.9 O 8 Z ) } } Z.R.&XR.D.) U ",
"{ '  .Y m 4 *  .].A./ ` O.:.=.l @ 4 m D ] ] ..X.=.;.+.] / ) '.{.} O.' ' Z m $.=...+./ R `.{.M # b m R ] ] ] &.-.:.O.' R ",
"Z V V V m n n / +.^.{.S.Z K K m n n N m Z m Z K Z K Z Y {.'.+.O.O. .Z Z [ ` U Z K Z `.|.+.O.Z n n N m Z Z Z Z D Z U +.{.",
"N K K V M b M / ' D.'.A.U K K Z M b M N I Z m Z Z Z D / ].`...]  . .Z m ( ) Z K I D _.{.+.' Z b b n Z D Z m Z Z D D O.'.",
"# ` ).V @ 3 v m Z / O... .) Z m b 4 @ 8 ).` # > Z U ..' O.' Z Z H H m m N N K Z [ ] O.@.U Z b b ; + R _.E # 5 Z ( ' { @.",
"o R `.V X > v m Z / O.O.../ m B 8 : X 5 `.| o = Z D O.] ] ' Z Z H G N n n b m Z  .} ' } Z Z b b + X R _.I X 5 m / O.' ..",
"_.( n I Y V 5 = # 3 Z 5 # S _...8 m / U N Y ^._.`.S.+ = V N # # m V D.~.: X C.F.4 * m m ; # 3 5 I / S m ' /./._.I * 4 m ",
"_.R 8 D / V 5 # + > m 5 o V _...5 B / Y b E _._._.A.+ + m b X X n N F.^.: . Z.F.= o b m @ + : 5 I R V b ' _.`.`.S o 5 N ",
"` I 8 M M m Z b , #.=XQ 8 V  .( Z m M b b Z ' [ ' ( 5 B =X=.b , / / ` ` ] ' ` ) n 8 T.=XG 5 N Z n M b b U ' ' ' V 8 Q =X",
"( V 5 5 5 B I N b $.>X$.b V / Y I m 5 5 5 m / / / F b G ;X=Xn v / / Y Y +.Z.[ / b 8 =X;XG b m U b , 5 6 D R / / V n $.;X",
"U O.F.F.G.R V Z Z E ! o.)._.`.S.m Y D.F.F.S.U ` `.`._.W.^ ! K Z ,X,XT Z U U F.`.).).| ! K Z N m  .D.~.~.' U O.`._._.S.! ",
"I F.|.{.'._ m Z F U U A.|. X|.G.B ) {.{.|.~.U ' |.|. X'.U U U U 1X<XT Z Z N `. X X X/ U Y U V V D.{.{.|.+.D A. X X XD.U ",
"8 ' ~.F.F.Y m / } ( Y ) ..A.).O.m / G.~.^.' 5 I ).~.] } U Y ' ' !.!.F.D.A.O.^.^.@.../ U ' ' Z m ..F.~.^.R 5 R ).A.O.` U ",
"; U A.Z.} Y m ' A.' D U I / A.' m Y +.Z.Z.Y # v A.O.U D D / +.A.A.A.{.{.[.'.~.+.Y U U U +.D.U V ' O.+.A.V ; V A.( I U U ",
"/ ] O.' Y Z B ' D.' D m v m ) I Z D / ' Z.] Y Y ) Y 8 b F Y Z.D.) ` F.~. .` ) ( b 5 U U +.A.U B Y ( ] A.` E / ) m b m U ",
"A.A.O.( m Z m [ D.[ K n = , D Z m V Z E Z.+.+.] K m ; > F Y A.G.Z U ] { Z m V I : = Z A O.G.D Z V Z ' +.A.Z.[ F 5 = M Z ",
"/ / / U Z ` Z.E B n b b n N Z / ..` V F _ ` [ / D Z b b b b V V D D / R 5 3 V D M b b M H V ` O.U Z Y ) _ [ Y D N b b b ",
"K I K K V A.`.V : # = 5 Z U K [ `.A.Z Z A D K K K U F m = = = = F D Z Z = @ V F A U = = = ; ..'.` V Z D A Z Z K A I b ; ",
"O.O.' I 8 ` D.D 8 L R / / U n I F.| 8 V ..O...` b m ) ( R E b , O.] ' ' 5 = b B / / R R b 5 ' F.S 8 E ] ..@.R M I / / Y ",
"{.{.[.L + D ' Y D A.|.`.+.Y # 8 ` V + 9 {.{.{.D.# 5 A.D.|.[.F Z [.[.'.].D n = = ] Z.}.|./ A / ' 5 # ` |.{.{.` = E +.`. X",
"`.^._.I = B S Y ' O.~.G.@.R f h I B = B _._._.S.f J +.A.F.D.' [ ^._.^.^.Z n h g } } F.F.] ` D D 5 = _ ^./.`.~ f R O.G.D.",
"{ ] ] E B = o ' '.] Z Y +.&.$Xz o = N D { { ' X.$XT.O.' Z Y `.[.' ..' ' m n x $XA.} D Z /.'.9 o v m ( ] { O.&.$X:.O./ Z ",
"[ ) ` I n : # ( (.O./ _ ' ~ *.k + > n Z ` ` _ ^ *.$...' / ` ^.`.' ' ) ( V N #.*.| ] / Y F.`.M @ 5 n Y ) [ [ ~ *.~ ' ` Y ",
"m N n n b M 5 Y ' G.`.} Z V B n b n b n n n m m m Z V I './.] ' ' ` N b Y / m Z V Z ).'.] ' V b b n n m N m V V V V ..'.",
"b N Z n 5 5 8 I ` S.)...V V m n v 5 5 b Z B b n m m S D _.F.` ` ` R N b Y Y m m V V F._.' ` B b 5 5 m Z N M n N V Z ' /.",
"@ R ^.M X 3 5 b n U ' [ ' R n n 5 3 + 5 ~.( @ = B V ' ` ' ( B m M h b v 5 5 V m ( ) ' ' m N v 5 # X E ^.V @ 4 N Y [ ` ' ",
"X E ^.M X = 5 b n I ' ` ' E b b 8 =   2 ^.R X # b m  .' ' ) N N h 9 b 5 b 5 b n ) ' '  .V n 5 5 +   E ^.H X : b E ' ' [ ",
"^.Y 8 V / n 4 + X = b : X B /.` 5 C Y D b E G.^.F...X @ b 5 X X b b O.Z.;   ' D.# + 5 M @ X = 5 Z Y m 8 ` D.~.~.V X : b ",
"~.I 5 V I M 4 + . : b :   m F.` : b U D , U G.~.~. .. @ 8 5 X . 5 8 ..Z.;   ' D.# X 6 M + . = 4 Z F n 5 / F.~.~.N X 2 8 ",
"_ V 5 5 8 B V 5 4 l =.l 5 C _ I V C 8 5 5 B / ( ) U 4 0 %X*.4 3 D Z U U / / ) Y 5 4 *.%X6 > b m 8 8 5 5 S / _ ` m > l =.",
"I b : 5 > n B 8 > z *X#.5 b I I V C : > > 8 I F I S 5 9 &X$X5 4 I D I D ' [ Y I 8 5 =.&Xh 5 N Z , > 4 5 V I I I C 8 l *X",
"V Z.W./.^.Y n b m K L  .`.`.`.] b E F.^.W.Z.D R `.`.W.F.I H V N :X-XH C C b G._././.T L V m v b ..F.F.W.` V ' `././...E ",
"S A.'.'.`.E b n V m V ..`.[.{.@.n R `.'.'.G.D ` ].}.[.`.Z Z m C 1X:XG b b 5 F.'.'.[.Y V m m b b Z.'.'.].' D  .].{.'...V ",
"; I Z...] I b U [ Y m I Y / O.) 8 D ..O.Z.Y = 8 A.] I Y m D ` ` E.o.D.A.Z.C.A...Y Y Z V ) [ m b _ ] O.S.S 2 S Z.( Y U V "
};
